<?xml version="1.0" encoding="UTF-8"?>
<svg id="Capa_2" data-name="Capa 2" xmlns="http://www.w3.org/2000/svg" viewBox="0 0 20 20">
  <defs>
    <style>
      .cls-1 {
        fill: #fff;
      }

      .cls-1, .cls-2 {
        stroke-width: 0px;
      }

      .cls-2 {
        fill: #009b07;
      }
    </style>
  </defs>
  <g id="Capa_1-2" data-name="Capa 1">
    <g>
      <path class="cls-1" d="M1.11,10C1.11,4.78,5.34.55,10.55.55s9.45,4.23,9.45,9.45-4.23,9.45-9.45,9.45c-1.99,0-3.84-.62-5.36-1.67-.53-.37-2.74.5-3.19.03-.29-.31,1.15-1.92.9-2.26-1.13-1.56-1.8-3.47-1.8-5.54Z"/>
      <path class="cls-2" d="M5.25,16.49l.72.42c1.21.71,2.59,1.08,4.02,1.08,4.42,0,8-3.58,8-8S14.42,2,10,2,2,5.58,2,10c0,1.44.38,2.81,1.08,4.02l.42.72-.65,2.4,2.4-.66ZM0,20l1.35-4.97c-.86-1.48-1.36-3.2-1.36-5.03C0,4.48,4.48,0,10,0s10,4.48,10,10-4.48,10-10,10c-1.83,0-3.55-.49-5.03-1.36L0,20ZM6.39,5.31c.13,0,.27-.01.4,0,.05,0,.11,0,.16.02.16.02.33.12.39.25.3.68.59,1.36.87,2.04.06.15.02.35-.09.54-.06.1-.15.23-.26.37-.11.14-.36.41-.36.41,0,0-.1.12-.06.27.01.06.06.14.1.2.02.04.04.07.06.09.26.43.6.86,1.02,1.27.12.12.24.24.36.35.47.41,1,.75,1.57,1h0c.08.04.13.06.25.11.06.03.13.05.19.07.02,0,.05,0,.07.01.16,0,.26-.09.3-.14.72-.88.79-.93.79-.93h0c.1-.1.24-.13.38-.13.06,0,.12.02.18.04.53.24,1.4.62,1.4.62l.58.26c.1.05.19.16.19.27,0,.07,0,.17-.01.37-.03.26-.11.57-.19.73-.06.11-.13.22-.21.3-.11.12-.2.19-.33.29-.08.06-.12.09-.12.09-.14.09-.22.13-.38.22-.26.14-.54.22-.83.23-.19,0-.37.02-.56.01,0,0-.57-.09-.57-.09-1.42-.37-2.74-1.07-3.84-2.05-.23-.2-.43-.41-.65-.63-.89-.89-1.56-1.84-1.97-2.74-.2-.45-.33-.92-.33-1.41,0-.61.2-1.2.56-1.68.07-.09.14-.19.26-.31.13-.12.21-.18.29-.23.12-.06.24-.09.37-.1Z"/>
    </g>
  </g>
</svg>